<svg width="278" height="341" viewBox="0 0 278 341" fill="none" xmlns="http://www.w3.org/2000/svg">
<path d="M113.316 10.3657C106.718 14.7896 94.2553 30.7155 97.1877 59.0283C93.8888 58.4138 87.6575 58.6596 89.1237 64.5581C90.5899 70.4566 92.9116 72.9143 93.8888 73.4059C94.7443 74.5118 96.3813 77.2399 96.0881 79.3044C95.7215 81.885 97.5542 87.7834 103.419 86.3088C105.252 92.0842 109.723 103.857 112.949 104.742V131.653C113.071 134.111 111.483 139.764 104.152 142.713C96.8211 145.662 57.8455 160.9 39.2739 168.15C33.7757 171.1 22.1197 181.569 19.4805 199.855C16.8414 218.14 10.0726 270.391 7.01805 294.231C5.30753 312.049 1.51992 347.76 0.0537444 348.054C-0.190616 374.229 0.273671 429.159 4.08573 439.481V495.517L11.05 514.318L27.911 526.484L38.1743 525.378C39.7627 525.747 41.6198 524.714 36.3416 517.636L28.6441 508.051L27.911 481.139C30.3547 490.479 35.8284 508.272 38.1743 504.733C40.5202 501.194 39.1518 488.512 38.1743 482.614C38.663 480.525 38.2476 472.66 32.6761 457.914C28.1555 453.121 20.3602 439.776 25.3452 424.735C31.5765 405.933 45.5051 340.681 44.4055 315.981L56.868 257.734L65.6651 315.981C68.7196 329.007 72.5559 361.031 63.4658 384.92C54.3755 408.809 52.5917 460.003 52.836 482.614C55.2797 519.725 62.7327 597.413 72.9958 611.275C72.7517 618.893 72.9225 635.68 75.5616 641.873C78.8605 649.615 70.4301 654.039 69.3305 686.48C68.4508 712.434 70.1858 727.033 71.1631 731.088C79.227 757.017 93.9621 811.158 88.3906 820.3C87.6575 824.238 86.6312 833.203 88.3906 837.627C90.15 842.051 77.6392 861.84 71.1631 871.175C67.1312 873.143 60.6068 878.327 66.7647 883.34C72.9225 888.354 94.9884 889.608 105.252 889.608C109.162 889.733 116.908 886.658 116.615 873.387C116.248 856.797 118.081 865.645 118.447 860.115C118.74 855.691 117.348 845.494 116.615 840.945C117.959 836.89 119.84 826.641 116.615 818.088C112.583 807.397 132.742 712.655 121.38 673.946L118.814 664.361C118.447 662.395 117.934 657.135 118.814 651.827C119.693 646.518 121.869 636.343 122.846 631.919C123.212 627.987 123.432 617.026 121.38 604.639C119.327 592.252 122.968 580.799 125.045 576.621C128.1 550.446 134.062 491.904 133.476 467.13H138.607" fill="#D9D9D9"/>
<path d="M163.861 10.3657C170.459 14.7896 182.921 30.7155 179.989 59.0283C183.288 58.4138 189.519 58.6596 188.053 64.5581C186.587 70.4566 184.265 72.9143 183.288 73.4059C182.432 74.5118 180.795 77.2399 181.088 79.3044C181.455 81.885 179.622 87.7834 173.758 86.3088C171.925 92.0842 167.453 103.857 164.227 104.742V131.653C164.105 134.111 165.694 139.764 173.024 142.713C180.355 145.662 219.331 160.9 237.903 168.15C243.401 171.1 255.057 181.569 257.696 199.855C260.335 218.14 267.104 270.391 270.159 294.231C271.869 312.049 275.657 347.76 277.123 348.054C277.367 374.229 276.903 429.159 273.091 439.481V495.517L266.127 514.318L249.266 526.484L239.002 525.378C237.414 525.747 235.557 524.714 240.835 517.636L248.532 508.051L249.266 481.139C246.822 490.479 241.348 508.272 239.002 504.733C236.656 501.194 238.025 488.512 239.002 482.614C238.513 480.525 238.929 472.66 244.5 457.914C249.021 453.121 256.816 439.776 251.831 424.735C245.6 405.933 231.671 340.681 232.771 315.981L220.309 257.734L211.512 315.981C208.457 329.007 204.62 361.031 213.711 384.92C222.801 408.809 224.585 460.003 224.341 482.614C221.897 519.725 214.444 597.413 204.181 611.275C204.425 618.893 204.254 635.68 201.615 641.873C198.316 649.615 206.746 654.039 207.846 686.48C208.726 712.434 206.991 727.033 206.013 731.088C197.949 757.017 183.214 811.158 188.786 820.3C189.519 824.238 190.545 833.203 188.786 837.627C187.026 842.051 199.538 861.84 206.013 871.175C210.045 873.143 216.57 878.327 210.412 883.34C204.254 888.354 182.188 889.608 171.925 889.608C168.015 889.733 160.269 886.658 160.562 873.387C160.928 856.797 159.096 865.645 158.729 860.115C158.436 855.691 159.829 845.494 160.562 840.945C159.218 836.89 157.336 826.641 160.562 818.088C164.594 807.397 144.434 712.655 155.797 673.946L158.363 664.361C158.729 662.395 159.242 657.135 158.363 651.827C157.483 646.518 155.308 636.343 154.331 631.919C153.964 627.987 153.744 617.026 155.797 604.639C157.85 592.252 154.208 580.799 152.131 576.621C149.077 550.446 143.114 491.904 143.701 467.13H138.569" fill="#D9D9D9"/>
<path d="M109.342 14.2744C118.656 3.50261 143.381 -11.5779 167.768 14.2744H109.342Z" fill="#D9D9D9"/>
<path d="M165.66 12.4883H111.442C110.299 12.4883 109.389 13.4446 109.445 14.5864L131.484 463.372C131.529 464.282 132.183 465.046 133.075 465.232L141.621 467.009C142.821 467.258 143.961 466.379 144.026 465.155L167.657 14.593C167.717 13.4489 166.806 12.4883 165.66 12.4883Z" fill="#D9D9D9"/>
</svg>
